<svg width="256" height="256" viewBox="0 0 256 256" fill="none" xmlns="http://www.w3.org/2000/svg">
    <g clip-path="url(#clip0_1_193)">
        <rect width="256" height="256" transform="translate(0 -1.39236)" fill="#DAE995"/>
        <rect x="206.789" y="47.8188" width="65.6573" height="65.6573" rx="19.6972"
              transform="rotate(90 206.789 47.8188)" fill="#262E2C"/>
        <rect x="206.789" y="139.739" width="65.6573" height="65.6573" rx="19.6972"
              transform="rotate(90 206.789 139.739)" fill="#262E2C"/>
        <rect x="114.87" y="47.8188" width="65.6573" height="65.6573" rx="19.6972" transform="rotate(90 114.87 47.8188)"
              fill="#262E2C"/>
        <rect x="114.87" y="139.739" width="65.6573" height="65.6573" rx="19.6972" transform="rotate(90 114.87 139.739)"
              fill="#262E2C"/>
        <g clip-path="url(#clip1_1_193)">
            <path d="M114.868 185.699L114.868 172.568C114.868 139.936 141.328 113.476 173.96 113.476L187.091 113.476C197.991 113.476 206.789 104.678 206.789 93.779L206.789 67.5161C206.789 56.6169 197.991 47.8188 187.091 47.8188L160.828 47.8188C149.929 47.8188 141.131 56.6169 141.131 67.516L141.131 80.6475C141.131 113.279 114.671 139.739 82.0397 139.739L68.9082 139.739C58.0091 139.739 49.211 148.537 49.211 159.436L49.211 185.699C49.211 196.598 58.0091 205.396 68.9082 205.396L95.1711 205.396C106.07 205.396 114.868 196.598 114.868 185.699Z"
                  fill="#262E2C"/>
        </g>
    </g>
    <defs>
        <clipPath id="clip0_1_193">
            <rect width="256" height="256" fill="white"/>
        </clipPath>
        <clipPath id="clip1_1_193">
            <rect width="157.578" height="157.578" fill="white" transform="translate(206.789 47.8188) rotate(90)"/>
        </clipPath>
    </defs>
</svg>
